<svg width="30" height="22" viewBox="0 0 30 22" fill="none" xmlns="http://www.w3.org/2000/svg">
<rect x="2" y="6" width="22" height="15" rx="1" fill="#F2F2F2"/>
<path d="M2 7C2 6.44772 2.44772 6 3 6H23C23.5523 6 24 6.44772 24 7V10H2V7Z" fill="#E0E0E0"/>
<rect x="4" y="13" width="18" height="2" rx="1" fill="#FCFCFC"/>
<g clip-path="url(#clip0_235_1071)">
<path d="M21 15C24.3137 15 27 12.3137 27 9C27 5.68629 24.3137 3 21 3C17.6863 3 15 5.68629 15 9C15 12.3137 17.6863 15 21 15Z" fill="#4F4F4F"/>
<path d="M18.1047 6.64981V10.9272H17.3284V7.55508L16.3 7.89493V7.26797L18.0168 6.64981H18.1047Z" fill="#FCFCFC"/>
<path d="M22.429 10.3178V10.9272H19.5403V10.4057L20.926 8.9086C21.0706 8.74454 21.1848 8.60196 21.2688 8.48087C21.3528 8.35977 21.4124 8.2504 21.4475 8.15274C21.4846 8.05313 21.5032 7.9584 21.5032 7.86856C21.5032 7.7377 21.4797 7.62344 21.4329 7.52579C21.386 7.42618 21.3176 7.34903 21.2278 7.29434C21.1399 7.23965 21.0315 7.21231 20.9026 7.21231C20.76 7.21231 20.6379 7.24551 20.5364 7.31192C20.4368 7.37637 20.3606 7.46622 20.3079 7.58145C20.2571 7.69669 20.2317 7.82852 20.2317 7.97696H19.4553C19.4553 7.72501 19.5139 7.49551 19.6311 7.28848C19.7483 7.0795 19.9163 6.91251 20.135 6.78751C20.3538 6.66251 20.6135 6.60001 20.9143 6.60001C21.2073 6.60001 21.4553 6.64883 21.6584 6.74649C21.8616 6.84219 22.0159 6.97891 22.1213 7.15665C22.2268 7.33438 22.2795 7.5463 22.2795 7.79239C22.2795 7.92911 22.2571 8.06387 22.2122 8.19669C22.1672 8.3295 22.1038 8.46133 22.0217 8.59219C21.9417 8.7211 21.8459 8.85196 21.7346 8.98477C21.6233 9.11758 21.4993 9.25333 21.3625 9.392L20.5305 10.3178H22.429Z" fill="#FCFCFC"/>
<path d="M23.8147 8.45157H24.2512C24.4055 8.45157 24.5325 8.4252 24.6321 8.37247C24.7336 8.31778 24.8088 8.24356 24.8577 8.14981C24.9084 8.05411 24.9338 7.94376 24.9338 7.81876C24.9338 7.69571 24.9114 7.58926 24.8665 7.49942C24.8215 7.40762 24.7532 7.33731 24.6614 7.28848C24.5715 7.2377 24.4563 7.21231 24.3157 7.21231C24.2024 7.21231 24.0979 7.23477 24.0022 7.27969C23.9084 7.32462 23.8333 7.38907 23.7766 7.47305C23.7219 7.55508 23.6946 7.65372 23.6946 7.76895H22.9182C22.9182 7.53848 22.9788 7.33633 23.0999 7.16251C23.2229 6.98672 23.3889 6.84903 23.5979 6.74942C23.8069 6.64981 24.0403 6.60001 24.2981 6.60001C24.5793 6.60001 24.8254 6.64688 25.0364 6.74063C25.2493 6.83243 25.4143 6.96817 25.5315 7.14786C25.6506 7.32755 25.7102 7.5502 25.7102 7.81583C25.7102 7.94278 25.6799 8.06973 25.6194 8.19669C25.5608 8.32169 25.4739 8.43497 25.3586 8.53653C25.2454 8.63614 25.1057 8.71719 24.9397 8.77969C24.7756 8.84024 24.5872 8.87051 24.3743 8.87051H23.8147V8.45157ZM23.8147 9.04922V8.63614H24.3743C24.6145 8.63614 24.8225 8.66446 24.9983 8.7211C25.176 8.77579 25.3225 8.85391 25.4377 8.95547C25.553 9.05508 25.6379 9.1713 25.6926 9.30411C25.7493 9.43692 25.7776 9.5795 25.7776 9.73184C25.7776 9.93106 25.7405 10.1088 25.6663 10.265C25.592 10.4193 25.4875 10.5502 25.3528 10.6576C25.22 10.765 25.0637 10.8471 24.884 10.9037C24.7043 10.9584 24.51 10.9857 24.301 10.9857C24.1194 10.9857 23.9426 10.9613 23.7708 10.9125C23.6008 10.8617 23.4475 10.7865 23.3108 10.6869C23.1741 10.5854 23.0657 10.4584 22.9856 10.3061C22.9055 10.1518 22.8655 9.97305 22.8655 9.76993H23.6418C23.6418 9.88712 23.6702 9.99161 23.7268 10.0834C23.7854 10.1752 23.8655 10.2475 23.967 10.3002C24.0706 10.351 24.1868 10.3764 24.3157 10.3764C24.4583 10.3764 24.5803 10.351 24.6819 10.3002C24.7854 10.2475 24.8645 10.1732 24.9192 10.0775C24.9739 9.97989 25.0012 9.86368 25.0012 9.72891C25.0012 9.56876 24.9709 9.43887 24.9104 9.33926C24.8499 9.23965 24.7629 9.16641 24.6497 9.11954C24.5383 9.07266 24.4055 9.04922 24.2512 9.04922H23.8147Z" fill="#FCFCFC"/>
</g>
<defs>
<clipPath id="clip0_235_1071">
<rect width="12" height="12" fill="white" transform="translate(15 3)"/>
</clipPath>
</defs>
</svg>
