<svg width="14" height="14" viewBox="0 0 14 14" fill="none" xmlns="http://www.w3.org/2000/svg">
<path d="M11.0833 2.33332H9.91666V1.74999C9.91666 1.59528 9.8552 1.44691 9.7458 1.33751C9.63641 1.22811 9.48803 1.16666 9.33332 1.16666C9.17861 1.16666 9.03024 1.22811 8.92085 1.33751C8.81145 1.44691 8.74999 1.59528 8.74999 1.74999V2.33332H5.24999V1.74999C5.24999 1.59528 5.18853 1.44691 5.07914 1.33751C4.96974 1.22811 4.82137 1.16666 4.66666 1.16666C4.51195 1.16666 4.36357 1.22811 4.25418 1.33751C4.14478 1.44691 4.08332 1.59528 4.08332 1.74999V2.33332H2.91666C2.45253 2.33332 2.00741 2.5177 1.67922 2.84589C1.35103 3.17408 1.16666 3.61919 1.16666 4.08332V11.0833C1.16666 11.5475 1.35103 11.9926 1.67922 12.3208C2.00741 12.6489 2.45253 12.8333 2.91666 12.8333H11.0833C11.5475 12.8333 11.9926 12.6489 12.3208 12.3208C12.6489 11.9926 12.8333 11.5475 12.8333 11.0833V4.08332C12.8333 3.61919 12.6489 3.17408 12.3208 2.84589C11.9926 2.5177 11.5475 2.33332 11.0833 2.33332ZM11.6667 11.0833C11.6667 11.238 11.6052 11.3864 11.4958 11.4958C11.3864 11.6052 11.238 11.6667 11.0833 11.6667H2.91666C2.76195 11.6667 2.61357 11.6052 2.50418 11.4958C2.39478 11.3864 2.33332 11.238 2.33332 11.0833V6.99999H11.6667V11.0833ZM11.6667 5.83332H2.33332V4.08332C2.33332 3.92861 2.39478 3.78024 2.50418 3.67084C2.61357 3.56145 2.76195 3.49999 2.91666 3.49999H4.08332V4.08332C4.08332 4.23803 4.14478 4.38641 4.25418 4.4958C4.36357 4.6052 4.51195 4.66666 4.66666 4.66666C4.82137 4.66666 4.96974 4.6052 5.07914 4.4958C5.18853 4.38641 5.24999 4.23803 5.24999 4.08332V3.49999H8.74999V4.08332C8.74999 4.23803 8.81145 4.38641 8.92085 4.4958C9.03024 4.6052 9.17861 4.66666 9.33332 4.66666C9.48803 4.66666 9.63641 4.6052 9.7458 4.4958C9.8552 4.38641 9.91666 4.23803 9.91666 4.08332V3.49999H11.0833C11.238 3.49999 11.3864 3.56145 11.4958 3.67084C11.6052 3.78024 11.6667 3.92861 11.6667 4.08332V5.83332Z" fill="#3A3A3A"/>
</svg>
