<svg width="22" height="23" viewBox="0 0 22 23" fill="none" xmlns="http://www.w3.org/2000/svg">
<path d="M17.4167 4.37166H15.5833V3.455C15.5833 3.21188 15.4868 2.97872 15.3149 2.80682C15.143 2.63491 14.9098 2.53833 14.6667 2.53833C14.4236 2.53833 14.1904 2.63491 14.0185 2.80682C13.8466 2.97872 13.75 3.21188 13.75 3.455V4.37166H8.25001V3.455C8.25001 3.21188 8.15343 2.97872 7.98152 2.80682C7.80962 2.63491 7.57646 2.53833 7.33334 2.53833C7.09023 2.53833 6.85707 2.63491 6.68516 2.80682C6.51325 2.97872 6.41668 3.21188 6.41668 3.455V4.37166H4.58334C3.854 4.37166 3.15453 4.66139 2.6388 5.17712C2.12307 5.69284 1.83334 6.39232 1.83334 7.12166V18.1217C1.83334 18.851 2.12307 19.5505 2.6388 20.0662C3.15453 20.5819 3.854 20.8717 4.58334 20.8717H17.4167C18.146 20.8717 18.8455 20.5819 19.3612 20.0662C19.8769 19.5505 20.1667 18.851 20.1667 18.1217V7.12166C20.1667 6.39232 19.8769 5.69284 19.3612 5.17712C18.8455 4.66139 18.146 4.37166 17.4167 4.37166ZM18.3333 18.1217C18.3333 18.3648 18.2368 18.5979 18.0649 18.7698C17.893 18.9418 17.6598 19.0383 17.4167 19.0383H4.58334C4.34023 19.0383 4.10707 18.9418 3.93516 18.7698C3.76325 18.5979 3.66668 18.3648 3.66668 18.1217V11.705H18.3333V18.1217ZM18.3333 9.87166H3.66668V7.12166C3.66668 6.87855 3.76325 6.64539 3.93516 6.47348C4.10707 6.30157 4.34023 6.205 4.58334 6.205H6.41668V7.12166C6.41668 7.36478 6.51325 7.59794 6.68516 7.76984C6.85707 7.94175 7.09023 8.03833 7.33334 8.03833C7.57646 8.03833 7.80962 7.94175 7.98152 7.76984C8.15343 7.59794 8.25001 7.36478 8.25001 7.12166V6.205H13.75V7.12166C13.75 7.36478 13.8466 7.59794 14.0185 7.76984C14.1904 7.94175 14.4236 8.03833 14.6667 8.03833C14.9098 8.03833 15.143 7.94175 15.3149 7.76984C15.4868 7.59794 15.5833 7.36478 15.5833 7.12166V6.205H17.4167C17.6598 6.205 17.893 6.30157 18.0649 6.47348C18.2368 6.64539 18.3333 6.87855 18.3333 7.12166V9.87166Z" fill="#484848"/>
</svg>
