<svg width="31" height="30" viewBox="0 0 31 30" fill="none" xmlns="http://www.w3.org/2000/svg">
<rect x="0.5" width="30" height="30" rx="15" fill="#97C6EA"/>
<path d="M9.5 21.0001H21.5M9.5 21.0001V18.0001L17.6515 9.8486L17.6528 9.84732C17.9489 9.55116 18.0973 9.40282 18.2683 9.34725C18.4189 9.29831 18.5812 9.29831 18.7318 9.34725C18.9027 9.40278 19.0509 9.55095 19.3466 9.84669L20.6515 11.1515C20.9485 11.4486 21.097 11.5971 21.1527 11.7684C21.2016 11.919 21.2016 12.0813 21.1527 12.2319C21.0971 12.403 20.9487 12.5514 20.6521 12.848L20.6515 12.8486L12.5 21.0001L9.5 21.0001Z" stroke="#013564" stroke-linecap="round" stroke-linejoin="round"/>
</svg>
