<svg width="24" height="25" viewBox="0 0 24 25" fill="none" xmlns="http://www.w3.org/2000/svg">
<path d="M2 21.4999H8C8.26522 21.4999 8.51957 21.3946 8.70711 21.207C8.89464 21.0195 9 20.7651 9 20.4999C9 20.2347 8.89464 19.9803 8.70711 19.7928C8.51957 19.6053 8.26522 19.4999 8 19.4999H3.071C3.31366 17.8347 4.14714 16.3124 5.41925 15.2108C6.69136 14.1093 8.31724 13.502 10 13.4999C11.1775 13.5101 12.3214 13.1081 13.2336 12.3634C14.1457 11.6187 14.7686 10.5784 14.9943 9.42271C15.2199 8.26701 15.0341 7.06878 14.4691 6.03569C13.904 5.0026 12.9953 4.19975 11.9005 3.76629C10.8057 3.33283 9.59368 3.29608 8.47459 3.6624C7.3555 4.02871 6.39984 4.77502 5.77322 5.77197C5.14661 6.76892 4.88855 7.95369 5.04375 9.12094C5.19895 10.2882 5.75765 11.3643 6.623 12.1629C4.96321 12.8362 3.54177 13.989 2.54021 15.474C1.53864 16.959 1.00242 18.7088 1 20.4999C1 20.7651 1.10536 21.0195 1.29289 21.207C1.48043 21.3946 1.73478 21.4999 2 21.4999ZM10 5.49992C10.5933 5.49992 11.1734 5.67587 11.6667 6.00551C12.1601 6.33516 12.5446 6.80369 12.7716 7.35187C12.9987 7.90005 13.0581 8.50325 12.9424 9.08519C12.8266 9.66713 12.5409 10.2017 12.1213 10.6212C11.7018 11.0408 11.1672 11.3265 10.5853 11.4423C10.0033 11.558 9.40013 11.4986 8.85195 11.2716C8.30377 11.0445 7.83524 10.66 7.50559 10.1666C7.17595 9.67328 7 9.09326 7 8.49992C7 7.70427 7.31607 6.94121 7.87868 6.3786C8.44129 5.81599 9.20435 5.49992 10 5.49992ZM20.207 9.79292C20.0195 9.60545 19.7652 9.50013 19.5 9.50013C19.2348 9.50013 18.9805 9.60545 18.793 9.79292L12.543 16.0429C12.4337 16.153 12.3513 16.2868 12.302 16.4339L11.052 20.1839C11.002 20.3342 10.9883 20.4942 11.0122 20.6507C11.0361 20.8073 11.0968 20.9559 11.1894 21.0844C11.2819 21.2129 11.4037 21.3176 11.5446 21.3898C11.6856 21.4621 11.8416 21.4998 12 21.4999C12.1074 21.4998 12.214 21.4825 12.316 21.4489L16.066 20.1989C16.2134 20.1497 16.3472 20.0669 16.457 19.9569L22.707 13.7069C22.8945 13.5194 22.9998 13.2651 22.9998 12.9999C22.9998 12.7348 22.8945 12.4804 22.707 12.2929L20.207 9.79292ZM15.207 18.3759L13.578 18.9189L14.121 17.2899L19.5 11.9139L20.586 12.9999L15.207 18.3759Z" fill="#013564"/>
</svg>
