<svg width="16" height="18" viewBox="0 0 16 18" fill="none" xmlns="http://www.w3.org/2000/svg">
<path fill-rule="evenodd" clip-rule="evenodd" d="M12.6022 5.16342V6.4412C14.0375 6.88921 15.0833 8.18853 15.0833 9.74042V13.8545C15.0833 15.7757 13.4905 17.3334 11.5268 17.3334H4.47396C2.50942 17.3334 0.916626 15.7757 0.916626 13.8545V9.74042C0.916626 8.18853 1.96325 6.88921 3.3977 6.4412V5.16342C3.40617 2.67907 5.46385 0.666748 7.98726 0.666748C10.5445 0.666748 12.6022 2.67907 12.6022 5.16342ZM8.00419 2.11595C9.72316 2.11595 11.1204 3.48234 11.1204 5.16342V6.2615H4.87957V5.14686C4.88803 3.47406 6.28522 2.11595 8.00419 2.11595ZM8.74089 12.7125C8.74089 13.1183 8.41065 13.4413 7.99573 13.4413C7.58927 13.4413 7.25902 13.1183 7.25902 12.7125V10.8741C7.25902 10.4766 7.58927 10.1536 7.99573 10.1536C8.41065 10.1536 8.74089 10.4766 8.74089 10.8741V12.7125Z" fill="#9E9E9E"/>
</svg>
