<svg width="12" height="14" viewBox="0 0 12 14" fill="none" xmlns="http://www.w3.org/2000/svg">
<path d="M11.9951 8.87911V0.929591C11.9946 0.82104 11.9687 0.713996 11.9193 0.616409C11.8699 0.518822 11.7983 0.433199 11.7099 0.365898C11.6227 0.297981 11.5208 0.249743 11.4116 0.224731C11.3025 0.199718 11.189 0.198567 11.0793 0.221361L4.32361 1.66673C4.15683 1.70294 4.00789 1.79287 3.90142 1.92166C3.79496 2.05044 3.73734 2.21036 3.73811 2.37496V8.40214C3.22568 8.16923 2.64861 8.10257 2.09349 8.21216C1.53837 8.32175 1.03513 8.60168 0.659254 9.00995C0.28338 9.41823 0.0551433 9.93284 0.00878397 10.4766C-0.0375754 11.0203 0.100442 11.5639 0.402131 12.0257C0.70382 12.4875 1.15291 12.8427 1.68204 13.038C2.21117 13.2333 2.7918 13.2581 3.33682 13.1087C3.88185 12.9594 4.36189 12.644 4.70492 12.2097C5.04795 11.7755 5.23549 11.2458 5.23939 10.7003C5.24785 10.5751 5.24785 10.4496 5.23939 10.3245V2.9531L10.4938 1.83294V6.95677C9.98112 6.72372 9.4037 6.65711 8.8483 6.76695C8.29291 6.87678 7.78952 7.15713 7.41373 7.56589C7.03794 7.97465 6.81003 8.48976 6.76425 9.03386C6.71846 9.57795 6.85726 10.1217 7.1598 10.5833C7.46235 11.045 7.9123 11.3997 8.44209 11.5942C8.97187 11.7887 9.5529 11.8124 10.0979 11.6619C10.6429 11.5113 11.1225 11.1946 11.4646 10.7593C11.8067 10.324 11.9928 9.79355 11.9951 9.24767C12.0016 9.1249 12.0016 9.00188 11.9951 8.87911Z" fill="#666666"/>
</svg>
