<svg width="34" height="34" viewBox="0 0 34 34" fill="none" xmlns="http://www.w3.org/2000/svg">
<path d="M17 31.1666C16.2208 31.1666 15.5538 30.8892 14.9989 30.3343C14.4441 29.7794 14.1666 29.1124 14.1666 28.3333H19.8333C19.8333 29.1124 19.5559 29.7794 19.001 30.3343C18.4461 30.8892 17.7791 31.1666 17 31.1666ZM5.66663 26.9166V24.0833H8.49996V14.1666C8.49996 12.2069 9.09024 10.4655 10.2708 8.94263C11.4513 7.41971 12.9861 6.42214 14.875 5.94992V4.95825C14.875 4.36797 15.0816 3.86624 15.4948 3.45304C15.9079 3.03985 16.4097 2.83325 17 2.83325C17.5902 2.83325 18.092 3.03985 18.5052 3.45304C18.9184 3.86624 19.125 4.36797 19.125 4.95825V5.41867C18.8888 5.89089 18.7118 6.38672 18.5937 6.90617C18.4757 7.42561 18.4166 7.95686 18.4166 8.49992C18.4166 10.4596 19.1073 12.1301 20.4885 13.5114C21.8698 14.8926 23.5402 15.5833 25.5 15.5833V24.0833H28.3333V26.9166H5.66663ZM25.5 12.7499C24.3194 12.7499 23.3159 12.3367 22.4895 11.5103C21.6632 10.6839 21.25 9.68047 21.25 8.49992C21.25 7.31936 21.6632 6.31589 22.4895 5.4895C23.3159 4.66311 24.3194 4.24992 25.5 4.24992C26.6805 4.24992 27.684 4.66311 28.5104 5.4895C29.3368 6.31589 29.75 7.31936 29.75 8.49992C29.75 9.68047 29.3368 10.6839 28.5104 11.5103C27.684 12.3367 26.6805 12.7499 25.5 12.7499Z" fill="#FF8A00"/>
</svg>
