<svg width="22" height="23" viewBox="0 0 22 23" fill="none" xmlns="http://www.w3.org/2000/svg">
<path d="M11 11.7052C9.99166 11.7052 9.12846 11.3461 8.41041 10.6281C7.69235 9.91002 7.33332 9.04683 7.33332 8.03849C7.33332 7.03016 7.69235 6.16697 8.41041 5.44891C9.12846 4.73085 9.99166 4.37183 11 4.37183C12.0083 4.37183 12.8715 4.73085 13.5896 5.44891C14.3076 6.16697 14.6667 7.03016 14.6667 8.03849C14.6667 9.04683 14.3076 9.91002 13.5896 10.6281C12.8715 11.3461 12.0083 11.7052 11 11.7052ZM3.66666 19.0385V16.4718C3.66666 15.9524 3.80049 15.4751 4.06816 15.04C4.33582 14.6049 4.69088 14.2724 5.13332 14.0427C6.08055 13.569 7.04305 13.214 8.02082 12.9775C8.9986 12.741 9.99166 12.6224 11 12.6218C12.0083 12.6212 13.0014 12.7398 13.9792 12.9775C14.9569 13.2152 15.9194 13.5703 16.8667 14.0427C17.3097 14.2718 17.6651 14.6043 17.9327 15.04C18.2004 15.4757 18.3339 15.953 18.3333 16.4718V19.0385H3.66666ZM5.49999 17.2052H16.5V16.4718C16.5 16.3038 16.4581 16.151 16.3744 16.0135C16.2907 15.876 16.1798 15.769 16.0417 15.6927C15.2167 15.2802 14.384 14.9709 13.5437 14.765C12.7035 14.559 11.8555 14.4558 11 14.4552C10.1444 14.4545 9.29652 14.5578 8.45624 14.765C7.61596 14.9722 6.78332 15.2814 5.95832 15.6927C5.82082 15.769 5.70991 15.876 5.62557 16.0135C5.54124 16.151 5.49938 16.3038 5.49999 16.4718V17.2052ZM11 9.87183C11.5042 9.87183 11.9359 9.69247 12.2952 9.33374C12.6546 8.97502 12.8339 8.54327 12.8333 8.03849C12.8327 7.53372 12.6534 7.10227 12.2952 6.74416C11.9371 6.38605 11.5054 6.20638 11 6.20516C10.4946 6.20394 10.0632 6.3836 9.70566 6.74416C9.34816 7.10471 9.16849 7.53616 9.16666 8.03849C9.16482 8.54083 9.34449 8.97258 9.70566 9.33374C10.0668 9.69491 10.4983 9.87427 11 9.87183Z" fill="#484848"/>
</svg>
