<svg width="116" height="116" viewBox="0 0 116 116" fill="none" xmlns="http://www.w3.org/2000/svg">
<circle cx="58" cy="58" r="45.3125" fill="#013564"/>
<path d="M83.2137 93.4393C77.0188 86.5206 68.0178 82.1667 58 82.1667C47.9822 82.1667 38.9805 86.5206 32.7855 93.4393M58 101.5C33.9756 101.5 14.5 82.0244 14.5 58C14.5 33.9756 33.9756 14.5 58 14.5C82.0244 14.5 101.5 33.9756 101.5 58C101.5 82.0244 82.0244 101.5 58 101.5ZM58 67.6667C49.9919 67.6667 43.5 61.1748 43.5 53.1667C43.5 45.1585 49.9919 38.6667 58 38.6667C66.0081 38.6667 72.5 45.1585 72.5 53.1667C72.5 61.1748 66.0081 67.6667 58 67.6667Z" stroke="#97C6EA" stroke-width="2" stroke-linecap="round" stroke-linejoin="round"/>
</svg>
