<svg width="21" height="20" viewBox="0 0 21 20" fill="none" xmlns="http://www.w3.org/2000/svg">
<path d="M10.5 0C4.97715 0 0.5 4.47715 0.5 10C0.5 15.5228 4.97715 20 10.5 20C16.0228 20 20.5 15.5228 20.5 10C20.4936 4.47982 16.0202 0.00642897 10.5 0Z" fill="#3598F1" fill-opacity="0.15"/>
<path d="M16.2724 6.83362L10.5683 14.5745C10.4322 14.7549 10.2294 14.8732 10.0053 14.9027C9.78118 14.9321 9.55465 14.8703 9.37659 14.7311L5.30325 11.4745C4.94381 11.1868 4.8856 10.6622 5.17325 10.3028C5.4609 9.94334 5.98547 9.88514 6.34492 10.1728L9.74159 12.8903L14.9308 5.84778C15.1009 5.59244 15.3976 5.45127 15.7031 5.48032C16.0086 5.50936 16.2734 5.70393 16.3923 5.98676C16.5113 6.2696 16.4653 6.59494 16.2724 6.83362Z" fill="#037EEE"/>
</svg>
