<svg width="24" height="24" viewBox="0 0 24 24" fill="none" xmlns="http://www.w3.org/2000/svg">
<path fill-rule="evenodd" clip-rule="evenodd" d="M1.97297 2.36339H3.79266V4.78711C3.79266 5.46089 4.10672 6.05652 4.61344 6.47061C5.04141 6.82107 5.61094 7.03818 6.21937 7.03818C6.82828 7.03818 7.39781 6.82107 7.82625 6.47061C8.3325 6.05652 8.64656 5.46089 8.64656 4.78711V2.36339H12.3211V4.78711C12.3211 5.46089 12.6347 6.05652 13.1414 6.47061C13.5694 6.82107 14.1394 7.03818 14.7478 7.03818C15.3562 7.03818 15.9263 6.82107 16.3542 6.47061C16.8609 6.05652 17.175 5.46089 17.175 4.78711V2.36339H19.0744C19.6163 2.36339 20.1094 2.58564 20.4675 2.94265C20.8256 3.29872 21.0478 3.79142 21.0478 4.33325V11.0822C20.7725 10.9761 20.4911 10.8866 20.205 10.8141V8.06522H0.842812V19.5208C0.842812 20.3719 1.54078 21.0695 2.39438 21.0695H11.8345C11.9762 21.3603 12.1371 21.6412 12.3164 21.9104H1.97297C1.43203 21.9104 0.938906 21.689 0.580781 21.332C0.222188 20.9732 0 20.4814 0 19.9414V4.33278C0 3.79189 0.222187 3.30013 0.579375 2.94312C0.937969 2.58518 1.43156 2.36339 1.97297 2.36339ZM17.1694 22.5154C17.4211 22.5823 17.5706 22.8405 17.5036 23.0918C17.4361 23.3431 17.1773 23.4923 16.9261 23.4254C16.7073 23.3671 16.4922 23.2957 16.282 23.2116C15.0764 22.7301 14.1108 21.8626 13.493 20.7949C12.7683 19.5437 12.5227 18.0165 12.9263 16.5117C13.3298 15.0074 14.3077 13.8082 15.5616 13.0853C16.8145 12.3619 18.345 12.1163 19.8525 12.5201C20.3794 12.6609 20.8692 12.8715 21.3141 13.1391C21.669 13.3533 21.9991 13.6059 22.2984 13.8924L22.2727 13.643C22.2464 13.3852 22.4339 13.1546 22.6922 13.1284C22.9505 13.1022 23.1811 13.2898 23.2078 13.5476L23.3428 14.8493C23.3475 14.897 23.3452 14.9443 23.3358 14.9892C23.3161 15.2227 23.1234 15.4098 22.883 15.4173L21.5728 15.4636C21.3141 15.4716 21.097 15.2681 21.0891 15.0098C21.0811 14.751 21.2845 14.5349 21.5433 14.5269L21.5958 14.525C21.3623 14.3084 21.105 14.1142 20.827 13.9462C20.4558 13.7226 20.0475 13.5471 19.6087 13.4297C18.3516 13.0937 17.077 13.2977 16.0341 13.899C14.9892 14.4998 14.175 15.4997 13.8384 16.7546C13.5014 18.0095 13.7053 19.2817 14.3081 20.3237C14.6077 20.8426 15.0061 21.3049 15.4861 21.6792C15.9637 22.0526 16.5834 22.3595 17.1694 22.5154ZM18.1711 15.0084H19.1128L19.0903 15.6007C19.4864 15.6255 19.8323 15.6648 20.1291 15.7196L19.9139 16.8664H18.8016C18.6286 16.8664 18.5133 16.8935 18.4566 16.9478C18.3998 17.0021 18.3689 17.106 18.3638 17.2585L18.8311 17.3104C19.3997 17.3745 19.7916 17.5201 20.0067 17.7475C20.2214 17.9744 20.3292 18.2678 20.3292 18.628C20.3292 18.9883 20.2917 19.2761 20.2177 19.4904C20.1436 19.7047 20.0372 19.8689 19.8989 19.9826C19.6467 20.1749 19.3158 20.2863 18.9056 20.3158L18.8831 21.063H17.9264L17.9564 20.3158C17.4867 20.2816 17.0888 20.2217 16.7625 20.138L16.9772 18.9612C17.3878 19.0697 17.8177 19.124 18.2677 19.124C18.4556 19.124 18.6309 19.1142 18.7941 19.0945V18.7834L18.3342 18.7315C17.7408 18.6725 17.3456 18.4998 17.1478 18.2135C16.9748 17.9622 16.8886 17.6338 16.8886 17.229C16.8886 16.6966 16.9983 16.3091 17.2186 16.0672C17.4384 15.8253 17.7483 15.677 18.1491 15.6232L18.1711 15.0084ZM18.6769 22.6744C18.022 22.7292 18.1406 23.665 18.7275 23.6163C19.0617 23.6004 19.4255 23.5452 19.7503 23.4643C20.3531 23.3136 20.1258 22.3979 19.5202 22.5495C19.2412 22.6174 18.9633 22.6571 18.6769 22.6744ZM21.0764 21.8481C20.5673 22.2042 21.1083 22.9772 21.6178 22.6211C21.8939 22.4316 22.1733 22.1944 22.4062 21.9543C22.8342 21.5272 22.1808 20.8459 21.728 21.2974C21.5405 21.4935 21.3005 21.6947 21.0764 21.8481ZM22.6898 19.8816C22.4367 20.4369 23.2913 20.8398 23.5538 20.2634C23.6981 19.9372 23.7947 19.6345 23.8847 19.2906C24.0333 18.6987 23.1197 18.4568 22.9659 19.0711C22.8844 19.3626 22.8136 19.6027 22.6898 19.8816ZM23.0592 17.3685C23.1581 17.9632 24 17.8822 24 17.2978L23.9963 17.2468C23.9494 16.8996 23.8786 16.5796 23.7727 16.2446C23.5716 15.6424 22.6805 15.9554 22.8731 16.5328C22.9594 16.8054 23.0216 17.085 23.0592 17.3685ZM9.25266 15.32H11.5692C11.2688 16.1182 11.1033 16.9829 11.1033 17.886C11.1033 18.0539 11.1098 18.221 11.1211 18.3861H9.25266C9.05531 18.3861 8.89219 18.2247 8.89219 18.0273V15.6793C8.89219 15.4819 9.05437 15.32 9.25266 15.32ZM9.25266 10.328H12.0792C12.2775 10.328 12.4392 10.4903 12.4392 10.6873V13.0348C12.4392 13.2313 12.2766 13.3941 12.0792 13.3941H9.25266C9.05531 13.3941 8.89219 13.2322 8.89219 13.0348V10.6873C8.89219 10.4894 9.05437 10.328 9.25266 10.328ZM3.55125 10.328H6.37781C6.57609 10.328 6.73828 10.4903 6.73828 10.6873V13.0348C6.73828 13.2313 6.57516 13.3941 6.37781 13.3941H3.55125C3.35391 13.3941 3.19125 13.2322 3.19125 13.0348V10.6873C3.19125 10.4894 3.35344 10.328 3.55125 10.328ZM14.9536 10.328H17.7806C17.948 10.328 18.0891 10.444 18.1294 10.5984C16.8361 10.6471 15.6295 11.0312 14.5936 11.6657V10.6873C14.5936 10.4894 14.7558 10.328 14.9536 10.328ZM3.55125 15.32H6.37781C6.57609 15.32 6.73828 15.4828 6.73828 15.6793V18.0273C6.73828 18.2238 6.57516 18.3861 6.37781 18.3861H3.55125C3.35391 18.3861 3.19125 18.2247 3.19125 18.0273V15.6793C3.19125 15.4819 3.35344 15.32 3.55125 15.32ZM13.7953 1.16136C13.7953 0.731357 14.2214 0.381836 14.7478 0.381836C15.2747 0.381836 15.7008 0.731357 15.7008 1.16136V4.78711C15.7008 5.21711 15.2747 5.56663 14.7478 5.56663C14.2214 5.56663 13.7953 5.21711 13.7953 4.78711V1.16136ZM5.26688 1.16136C5.26688 0.731357 5.69297 0.381836 6.21937 0.381836C6.74625 0.381836 7.17234 0.731357 7.17234 1.16136V4.78711C7.17234 5.21711 6.74625 5.56663 6.21937 5.56663C5.69297 5.56663 5.26688 5.21711 5.26688 4.78711V1.16136Z" fill="#013564"/>
</svg>
