<svg width="227" height="199" viewBox="0 0 227 199" fill="none" xmlns="http://www.w3.org/2000/svg">
<path d="M127.997 195.178C130.731 195.178 132.947 192.961 132.947 190.227C132.947 187.494 130.731 185.277 127.997 185.277C125.263 185.277 123.047 187.494 123.047 190.227C123.047 192.961 125.263 195.178 127.997 195.178Z" fill="#97C6EA"/>
<path d="M88.3956 198.713C90.739 198.713 92.6386 196.814 92.6386 194.47C92.6386 192.127 90.739 190.227 88.3956 190.227C86.0523 190.227 84.1526 192.127 84.1526 194.47C84.1526 196.814 86.0523 198.713 88.3956 198.713Z" fill="#97C6EA"/>
<path d="M171.841 176.084C173.794 176.084 175.377 174.501 175.377 172.548C175.377 170.596 173.794 169.012 171.841 169.012C169.888 169.012 168.305 170.596 168.305 172.548C168.305 174.501 169.888 176.084 171.841 176.084Z" fill="#97C6EA"/>
<path d="M62.2306 180.327C65.355 180.327 67.8879 177.794 67.8879 174.67C67.8879 171.545 65.355 169.012 62.2306 169.012C59.1061 169.012 56.5732 171.545 56.5732 174.67C56.5732 177.794 59.1061 180.327 62.2306 180.327Z" fill="#97C6EA"/>
<path d="M16.6184 142.847C19.5475 142.847 21.9221 140.473 21.9221 137.544C21.9221 134.614 19.5475 132.24 16.6184 132.24C13.6892 132.24 11.3146 134.614 11.3146 137.544C11.3146 140.473 13.6892 142.847 16.6184 142.847Z" fill="#97C6EA"/>
<path d="M189.52 152.041C191.864 152.041 193.763 150.141 193.763 147.798C193.763 145.454 191.864 143.555 189.52 143.555C187.177 143.555 185.277 145.454 185.277 147.798C185.277 150.141 187.177 152.041 189.52 152.041Z" fill="#97C6EA"/>
<path d="M219.928 107.489C222.272 107.489 224.171 105.589 224.171 103.246C224.171 100.903 222.272 99.0031 219.928 99.0031C217.585 99.0031 215.685 100.903 215.685 103.246C215.685 105.589 217.585 107.489 219.928 107.489Z" fill="#97C6EA"/>
<path d="M221.343 143.555C224.467 143.555 227 141.022 227 137.897C227 134.773 224.467 132.24 221.343 132.24C218.218 132.24 215.685 134.773 215.685 137.897C215.685 141.022 218.218 143.555 221.343 143.555Z" fill="#97C6EA"/>
<path d="M192.349 114.561C194.302 114.561 195.885 112.978 195.885 111.025C195.885 109.072 194.302 107.489 192.349 107.489C190.396 107.489 188.813 109.072 188.813 111.025C188.813 112.978 190.396 114.561 192.349 114.561Z" fill="#97C6EA"/>
<path d="M188.813 99.0031C191.938 99.0031 194.47 96.4702 194.47 93.3458C194.47 90.2213 191.938 87.6885 188.813 87.6885C185.689 87.6885 183.156 90.2213 183.156 93.3458C183.156 96.4702 185.689 99.0031 188.813 99.0031Z" fill="#97C6EA"/>
<path d="M207.907 73.5452C209.859 73.5452 211.442 71.9621 211.442 70.0094C211.442 68.0566 209.859 66.4735 207.907 66.4735C205.954 66.4735 204.371 68.0566 204.371 70.0094C204.371 71.9621 205.954 73.5452 207.907 73.5452Z" fill="#97C6EA"/>
<path d="M31.1153 59.4019C34.2397 59.4019 36.7726 56.869 36.7726 53.7445C36.7726 50.6201 34.2397 48.0872 31.1153 48.0872C27.9908 48.0872 25.4579 50.6201 25.4579 53.7445C25.4579 56.869 27.9908 59.4019 31.1153 59.4019Z" fill="#97C6EA"/>
<path d="M186.579 57.6191C189.5 56.5095 190.968 53.2422 189.859 50.3214C188.749 47.4007 185.482 45.9325 182.561 47.0421C179.64 48.1518 178.172 51.4191 179.282 54.3398C180.391 57.2606 183.659 58.7288 186.579 57.6191Z" fill="#97C6EA"/>
<path d="M36.8864 176.649C39.8071 175.539 41.2753 172.272 40.1657 169.351C39.0561 166.43 35.7888 164.962 32.868 166.072C29.9472 167.181 28.479 170.449 29.5887 173.369C30.6983 176.29 33.9656 177.758 36.8864 176.649Z" fill="#97C6EA"/>
<path d="M12.729 174.67C15.0723 174.67 16.9719 172.77 16.9719 170.427C16.9719 168.083 15.0723 166.184 12.729 166.184C10.3856 166.184 8.48596 168.083 8.48596 170.427C8.48596 172.77 10.3856 174.67 12.729 174.67Z" fill="#97C6EA"/>
<path d="M214.978 50.2087C217.712 50.2087 219.928 47.9925 219.928 45.2586C219.928 42.5247 217.712 40.3084 214.978 40.3084C212.244 40.3084 210.028 42.5247 210.028 45.2586C210.028 47.9925 212.244 50.2087 214.978 50.2087Z" fill="#97C6EA"/>
<path d="M179.266 26.8722C182.196 26.8722 184.57 24.4977 184.57 21.5685C184.57 18.6393 182.196 16.2648 179.266 16.2648C176.337 16.2648 173.963 18.6393 173.963 21.5685C173.963 24.4977 176.337 26.8722 179.266 26.8722Z" fill="#97C6EA"/>
<path d="M201.189 21.9221C204.118 21.9221 206.492 19.5475 206.492 16.6184C206.492 13.6892 204.118 11.3146 201.189 11.3146C198.259 11.3146 195.885 13.6892 195.885 16.6184C195.885 19.5475 198.259 21.9221 201.189 21.9221Z" fill="#97C6EA"/>
<path d="M127.997 7.07165C129.95 7.07165 131.533 5.48861 131.533 3.53583C131.533 1.58304 129.95 0 127.997 0C126.044 0 124.461 1.58304 124.461 3.53583C124.461 5.48861 126.044 7.07165 127.997 7.07165Z" fill="#97C6EA"/>
<path d="M61.5234 28.9938C63.4762 28.9938 65.0592 27.4107 65.0592 25.4579C65.0592 23.5052 63.4762 21.9221 61.5234 21.9221C59.5706 21.9221 57.9875 23.5052 57.9875 25.4579C57.9875 27.4107 59.5706 28.9938 61.5234 28.9938Z" fill="#97C6EA"/>
<path d="M84.1527 39.6012C86.8866 39.6012 89.1028 37.385 89.1028 34.6511C89.1028 31.9172 86.8866 29.7009 84.1527 29.7009C81.4188 29.7009 79.2025 31.9172 79.2025 34.6511C79.2025 37.385 81.4188 39.6012 84.1527 39.6012Z" fill="#97C6EA"/>
<path d="M41.7227 38.1869C44.0661 38.1869 45.9657 36.2873 45.9657 33.9439C45.9657 31.6006 44.0661 29.7009 41.7227 29.7009C39.3794 29.7009 37.4797 31.6006 37.4797 33.9439C37.4797 36.2873 39.3794 38.1869 41.7227 38.1869Z" fill="#97C6EA"/>
<path d="M25.4579 11.3146C28.5824 11.3146 31.1152 8.78177 31.1152 5.65732C31.1152 2.53287 28.5824 0 25.4579 0C22.3335 0 19.8006 2.53287 19.8006 5.65732C19.8006 8.78177 22.3335 11.3146 25.4579 11.3146Z" fill="#97C6EA"/>
<path d="M5.30374 71.4237C8.23291 71.4237 10.6075 69.0491 10.6075 66.1199C10.6075 63.1908 8.23291 60.8162 5.30374 60.8162C2.37456 60.8162 0 63.1908 0 66.1199C0 69.0491 2.37456 71.4237 5.30374 71.4237Z" fill="#97C6EA"/>
<path d="M29.7009 89.1028C31.6537 89.1028 33.2368 87.5198 33.2368 85.567C33.2368 83.6142 31.6537 82.0312 29.7009 82.0312C27.7481 82.0312 26.1651 83.6142 26.1651 85.567C26.1651 87.5198 27.7481 89.1028 29.7009 89.1028Z" fill="#97C6EA"/>
<path d="M36.7726 124.461C39.8971 124.461 42.4299 121.928 42.4299 118.804C42.4299 115.679 39.8971 113.146 36.7726 113.146C33.6482 113.146 31.1153 115.679 31.1153 118.804C31.1153 121.928 33.6482 124.461 36.7726 124.461Z" fill="#97C6EA"/>
<path d="M116.682 23.3364C118.635 23.3364 120.218 21.7534 120.218 19.8006C120.218 17.8478 118.635 16.2648 116.682 16.2648C114.729 16.2648 113.146 17.8478 113.146 19.8006C113.146 21.7534 114.729 23.3364 116.682 23.3364Z" fill="#97C6EA"/>
<path d="M128.704 38.1869C131.047 38.1869 132.947 36.2873 132.947 33.9439C132.947 31.6006 131.047 29.7009 128.704 29.7009C126.361 29.7009 124.461 31.6006 124.461 33.9439C124.461 36.2873 126.361 38.1869 128.704 38.1869Z" fill="#97C6EA"/>
<path d="M156.991 194.47C159.334 194.47 161.234 192.571 161.234 190.227C161.234 187.884 159.334 185.984 156.991 185.984C154.647 185.984 152.748 187.884 152.748 190.227C152.748 192.571 154.647 194.47 156.991 194.47Z" fill="#97C6EA"/>
<path d="M161.234 45.2586C163.577 45.2586 165.477 43.3589 165.477 41.0156C165.477 38.6722 163.577 36.7726 161.234 36.7726C158.89 36.7726 156.991 38.6722 156.991 41.0156C156.991 43.3589 158.89 45.2586 161.234 45.2586Z" fill="#97C6EA"/>
<rect x="48.0872" y="40.3084" width="130.826" height="130.826" rx="65.4128" fill="#024583"/>
<path d="M80.6238 111.377L100.392 130.432L144.527 87.8879" stroke="#97C6EA" stroke-width="18" stroke-linecap="round" stroke-linejoin="round"/>
</svg>
