<svg width="24" height="24" viewBox="0 0 24 24" fill="none" xmlns="http://www.w3.org/2000/svg">
<g filter="url(#filter0_d_1_4250)">
<path d="M12 0.6875C5.74943 0.6875 0.6875 5.74943 0.6875 12C0.6875 18.2506 5.74943 23.3125 12 23.3125C18.2506 23.3125 23.3125 18.2506 23.3125 12C23.3125 5.74943 18.2506 0.6875 12 0.6875ZM12 21.9594C6.49447 21.9594 2.04063 17.4965 2.04063 12C2.04063 6.49432 6.49432 2.04063 12 2.04063C17.5055 2.04063 21.9594 6.50355 21.9594 12C21.9594 17.5057 17.5057 21.9594 12 21.9594Z" fill="#013564" stroke="#013564" stroke-width="0.5"/>
<path d="M10.4907 14.4375H11.6813L9.41255 17.2406L8.6438 16.725L10.4907 14.4375Z" fill="#013564"/>
<path d="M7.75317 13.2563H16.2563V13.322C16.2563 13.5001 16.1907 13.6407 16.0688 13.772C15.9469 13.8938 15.7969 13.9595 15.6188 13.9595H8.39067C8.21255 13.9595 8.07192 13.8938 7.94067 13.772C7.8188 13.6501 7.75317 13.5001 7.75317 13.322V13.2563Z" fill="#013564"/>
<path d="M13.3313 14.4375L15.1875 16.6406L14.4282 17.1656L12.1125 14.4375H13.3313Z" fill="#013564"/>
<path d="M15.6188 6.8999C15.7969 6.8999 15.9375 6.96553 16.0688 7.0874C16.1907 7.20928 16.2563 7.35928 16.2563 7.5374V12.5343H7.75317V7.5374C7.75317 7.35928 7.8188 7.21865 7.94067 7.0874C8.06255 6.96553 8.21255 6.8999 8.39067 6.8999H15.6188ZM12 8.3624C11.8032 8.3624 11.625 8.3999 11.4469 8.4749C11.2782 8.5499 11.1282 8.65303 10.9969 8.78428C10.8657 8.91553 10.7719 9.06553 10.6969 9.23428C10.6219 9.40303 10.5844 9.59053 10.5844 9.7874C10.5844 9.98428 10.6219 10.1624 10.6969 10.3405C10.7719 10.5093 10.875 10.6593 10.9969 10.7905C11.1282 10.9218 11.2782 11.0249 11.4469 11.0999C11.6157 11.1749 11.8032 11.2124 12 11.2124C12.1969 11.2124 12.375 11.1749 12.5532 11.0999C12.7219 11.0249 12.8719 10.9218 13.0032 10.7905C13.1344 10.6593 13.2282 10.5093 13.3032 10.3405C13.3782 10.1718 13.4157 9.98428 13.4157 9.7874C13.4157 9.59053 13.3782 9.4124 13.3032 9.23428C13.2282 9.06553 13.125 8.91553 13.0032 8.78428C12.8719 8.65303 12.7219 8.5499 12.5532 8.4749C12.3844 8.3999 12.1969 8.3624 12 8.3624Z" fill="#013564"/>
<path d="M12.5625 9.9188C12.5812 9.90005 12.6 9.87192 12.6094 9.83442C12.6187 9.79692 12.6281 9.7688 12.6281 9.7313C12.6281 9.6938 12.6187 9.6563 12.6094 9.62817C12.6 9.59067 12.5812 9.57192 12.5531 9.5438C12.45 9.4688 12.3468 9.38442 12.225 9.2813C12.1031 9.17817 11.9812 9.08442 11.85 9.00005C11.8219 8.9813 11.7937 8.97192 11.7656 8.97192C11.7375 8.97192 11.7094 8.9813 11.6906 9.00005C11.6719 9.0188 11.6437 9.03755 11.6344 9.06567C11.625 9.0938 11.6156 9.1313 11.6156 9.17817V10.3875C11.6156 10.4344 11.625 10.4719 11.6437 10.5C11.6625 10.5282 11.6812 10.5469 11.7094 10.5563C11.7375 10.5657 11.7656 10.5657 11.7937 10.5657C11.8219 10.5657 11.85 10.5469 11.8781 10.5282C11.9344 10.4907 11.9906 10.4438 12.0469 10.3875C12.1031 10.3313 12.1687 10.2844 12.225 10.2282C12.2812 10.1719 12.3469 10.1157 12.4031 10.0688C12.45 10.0219 12.5062 9.96567 12.5625 9.9188Z" fill="#013564"/>
</g>
<defs>
<filter id="filter0_d_1_4250" x="-3.5625" y="0.4375" width="31.125" height="31.125" filterUnits="userSpaceOnUse" color-interpolation-filters="sRGB">
<feFlood flood-opacity="0" result="BackgroundImageFix"/>
<feColorMatrix in="SourceAlpha" type="matrix" values="0 0 0 0 0 0 0 0 0 0 0 0 0 0 0 0 0 0 127 0" result="hardAlpha"/>
<feOffset dy="4"/>
<feGaussianBlur stdDeviation="2"/>
<feComposite in2="hardAlpha" operator="out"/>
<feColorMatrix type="matrix" values="0 0 0 0 0 0 0 0 0 0 0 0 0 0 0 0 0 0 0.25 0"/>
<feBlend mode="normal" in2="BackgroundImageFix" result="effect1_dropShadow_1_4250"/>
<feBlend mode="normal" in="SourceGraphic" in2="effect1_dropShadow_1_4250" result="shape"/>
</filter>
</defs>
</svg>
